<svg xmlns="http://www.w3.org/2000/svg" xmlns:xlink="http://www.w3.org/1999/xlink" width="500" zoomAndPan="magnify" viewBox="0 0 375 374.999991" height="500" preserveAspectRatio="xMidYMid meet" version="1.0"><defs><clipPath id="1ac1e689dc"><path d="M 0 1.363281 L 375 1.363281 L 375 374.863281 L 0 374.863281 Z M 0 1.363281 " clip-rule="nonzero"/></clipPath></defs><rect x="-37.5" width="450" fill="#ffffff" y="-37.499999" height="449.999989" fill-opacity="1"/><rect x="-37.5" width="450" fill="#5e17eb" y="-37.499999" height="449.999989" fill-opacity="1"/><g clip-path="url(#1ac1e689dc)"><path fill="#fcfcfc" d="M 187.582031 1.488281 C 83.964844 1.488281 0 85.453125 0 189.070312 C 0 282.132812 67.886719 359.4375 156.722656 374.054688 L 156.722656 246.886719 L 108.976562 246.886719 L 108.976562 191.183594 L 156.722656 191.183594 L 156.722656 150.742188 C 156.722656 106.894531 192.292969 77.171875 236.140625 77.171875 C 255.628906 77.171875 267.8125 80.09375 267.8125 80.09375 L 267.8125 126.867188 L 236.140625 126.867188 C 222.984375 126.867188 212.265625 137.589844 212.265625 150.742188 L 212.265625 191.183594 L 263.425781 191.183594 L 256.28125 246.886719 L 212.265625 246.886719 L 212.265625 374.867188 C 304.027344 362.683594 374.835938 284.078125 374.835938 189.070312 C 375 85.453125 291.035156 1.488281 187.582031 1.488281 Z M 187.582031 1.488281 " fill-opacity="1" fill-rule="nonzero"/></g></svg>