<svg xmlns="http://www.w3.org/2000/svg" xmlns:xlink="http://www.w3.org/1999/xlink" width="500" zoomAndPan="magnify" viewBox="0 0 375 374.999991" height="500" preserveAspectRatio="xMidYMid meet" version="1.0"><defs><g/><clipPath id="6aa2ee3c57"><path d="M 271.273438 34.78125 L 305.925781 34.78125 L 305.925781 109.117188 L 271.273438 109.117188 Z M 271.273438 34.78125 " clip-rule="nonzero"/></clipPath><clipPath id="ca18083218"><path d="M 127 17.453125 L 267 17.453125 L 267 121 L 127 121 Z M 127 17.453125 " clip-rule="nonzero"/></clipPath><clipPath id="3c883acc4b"><path d="M 251.332031 199.742188 L 305.925781 199.742188 L 305.925781 274.964844 L 251.332031 274.964844 Z M 251.332031 199.742188 " clip-rule="nonzero"/></clipPath><clipPath id="216266efe6"><path d="M 179.320312 229.320312 L 232.832031 229.320312 L 232.832031 293.449219 L 179.320312 293.449219 Z M 179.320312 229.320312 " clip-rule="nonzero"/></clipPath><clipPath id="09d74e2074"><path d="M 210.453125 189.660156 L 271.828125 189.660156 L 271.828125 293.449219 L 210.453125 293.449219 Z M 210.453125 189.660156 " clip-rule="nonzero"/></clipPath><clipPath id="78c09c1908"><path d="M 145.089844 262.222656 L 174.445312 262.222656 L 174.445312 293.449219 L 145.089844 293.449219 Z M 145.089844 262.222656 " clip-rule="nonzero"/></clipPath><clipPath id="0cda642f5e"><path d="M 103.988281 226 L 160.375 226 L 160.375 293.449219 L 103.988281 293.449219 Z M 103.988281 226 " clip-rule="nonzero"/></clipPath></defs><rect x="-37.5" width="450" fill="#ffffff" y="-37.499999" height="449.999989" fill-opacity="1"/><rect x="-37.5" width="450" fill="#fcfcfc" y="-37.499999" height="449.999989" fill-opacity="1"/><path fill="#5e17eb" d="M 93.300781 146.210938 C 92.332031 146.210938 91.457031 146.78125 91.0625 147.664062 L 90.910156 148 C 84.160156 163.039062 75.921875 181.394531 71.882812 199.183594 C 71.410156 201.269531 73.65625 202.917969 75.507812 201.847656 L 85.5 196.078125 C 86.070312 195.75 86.746094 195.660156 87.382812 195.828125 C 88.015625 196 88.558594 196.414062 88.886719 196.984375 L 105.105469 225.070312 C 106.046875 226.703125 108.40625 226.703125 109.351562 225.070312 L 112.113281 220.285156 C 112.441406 219.714844 112.984375 219.300781 113.617188 219.132812 C 114.253906 218.960938 114.929688 219.050781 115.496094 219.378906 L 166.015625 248.546875 C 167.203125 249.230469 167.609375 250.746094 166.925781 251.929688 L 165.941406 253.636719 C 164.996094 255.269531 166.175781 257.316406 168.0625 257.316406 L 171.914062 257.316406 C 173.269531 257.316406 174.367188 256.21875 174.367188 254.863281 L 174.367188 226.847656 C 174.367188 225.496094 175.464844 224.394531 176.820312 224.394531 L 204.738281 224.394531 C 206.628906 224.394531 207.808594 222.351562 206.863281 220.71875 L 203.886719 215.5625 C 203.558594 214.992188 203.46875 214.316406 203.636719 213.683594 C 203.808594 213.046875 204.222656 212.507812 204.792969 212.179688 L 255.3125 183.007812 C 255.882812 182.679688 256.558594 182.589844 257.191406 182.761719 C 257.828125 182.933594 258.367188 183.347656 258.699219 183.917969 L 271.359375 205.851562 C 272.304688 207.488281 274.664062 207.488281 275.609375 205.851562 L 282.425781 194.050781 C 282.75 193.480469 283.292969 193.066406 283.929688 192.894531 C 284.5625 192.726562 285.238281 192.816406 285.808594 193.144531 L 299.660156 201.144531 C 301.519531 202.21875 303.769531 200.558594 303.28125 198.472656 C 299.199219 180.949219 291.125 162.933594 284.488281 148.128906 L 284.28125 147.664062 C 283.882812 146.78125 283.007812 146.210938 282.042969 146.210938 L 189.867188 146.210938 C 189.851562 146.210938 189.835938 146.207031 189.820312 146.207031 L 183.210938 146.207031 C 181.859375 146.207031 180.761719 147.304688 180.761719 148.660156 L 180.761719 171.53125 C 180.761719 174.875 178.050781 177.585938 174.707031 177.585938 L 123.523438 177.585938 C 120.179688 177.585938 117.46875 174.875 117.46875 171.53125 L 117.46875 148.660156 C 117.46875 147.308594 116.371094 146.207031 115.015625 146.207031 L 108.566406 146.207031 C 108.550781 146.207031 108.535156 146.210938 108.519531 146.210938 L 93.300781 146.210938 " fill-opacity="1" fill-rule="nonzero"/><path fill="#5e17eb" d="M 288.605469 88.484375 C 291.382812 88.484375 293.628906 90.730469 293.628906 93.503906 C 293.628906 96.28125 291.382812 98.527344 288.605469 98.527344 C 285.832031 98.527344 283.585938 96.28125 283.585938 93.503906 C 283.585938 90.730469 285.832031 88.484375 288.605469 88.484375 " fill-opacity="1" fill-rule="nonzero"/><g clip-path="url(#6aa2ee3c57)"><path fill="#5e17eb" d="M 289.910156 103.402344 C 283.390625 104.230469 277.882812 98.722656 278.710938 92.207031 C 279.277344 87.761719 282.863281 84.175781 287.308594 83.609375 C 293.824219 82.78125 299.332031 88.289062 298.503906 94.804688 C 297.9375 99.246094 294.351562 102.835938 289.910156 103.402344 Z M 302.851562 34.882812 L 274.363281 34.882812 C 272.667969 34.882812 271.296875 36.253906 271.296875 37.945312 L 271.296875 38.042969 C 271.296875 38.054688 271.300781 38.070312 271.300781 38.082031 C 271.300781 38.09375 271.296875 38.105469 271.296875 38.117188 L 271.296875 91.21875 C 271.296875 91.234375 271.300781 91.25 271.300781 91.265625 C 271.300781 91.28125 271.296875 91.296875 271.296875 91.308594 L 271.296875 105.996094 C 271.296875 107.6875 272.667969 109.058594 274.363281 109.058594 L 302.851562 109.058594 C 304.546875 109.058594 305.917969 107.6875 305.917969 105.996094 L 305.917969 37.949219 C 305.917969 36.253906 304.546875 34.882812 302.851562 34.882812 " fill-opacity="1" fill-rule="nonzero"/></g><g clip-path="url(#ca18083218)"><path fill="#5e17eb" d="M 127.898438 70.703125 L 130.648438 81.640625 C 131.742188 86 132.910156 90.648438 134 94.976562 C 134.339844 96.339844 135.566406 97.292969 136.972656 97.292969 L 139.382812 97.292969 C 141.265625 97.292969 142.703125 95.609375 142.414062 93.753906 C 141.789062 89.742188 141.15625 85.675781 140.582031 81.964844 C 140.148438 79.167969 139.746094 76.574219 139.398438 74.363281 C 138.5625 69.039062 139.816406 63.675781 142.925781 59.269531 L 161.273438 33.195312 C 162.0625 32.074219 163.609375 31.804688 164.726562 32.59375 C 165.847656 33.382812 166.113281 34.925781 165.328125 36.042969 L 146.972656 62.125 C 144.609375 65.476562 143.660156 69.550781 144.296875 73.597656 C 144.640625 75.8125 145.042969 78.40625 145.476562 81.203125 C 146.136719 85.445312 146.863281 90.152344 147.578125 94.699219 C 147.808594 96.191406 149.09375 97.292969 150.605469 97.292969 L 161.410156 97.292969 C 161.820312 97.292969 162.226562 97.207031 162.605469 97.046875 L 163.957031 96.472656 C 165.25 95.925781 166.003906 94.566406 165.789062 93.179688 L 162.65625 73.027344 C 162.535156 72.242188 162.71875 71.441406 163.175781 70.792969 L 178.738281 48.683594 C 179.445312 47.679688 180.675781 47.203125 181.878906 47.449219 C 186.050781 48.320312 190.589844 48.679688 195.386719 48.519531 C 195.417969 48.515625 195.449219 48.523438 195.480469 48.523438 C 195.570312 48.527344 195.65625 48.53125 195.746094 48.542969 C 195.824219 48.550781 195.898438 48.558594 195.96875 48.574219 C 196.050781 48.589844 196.128906 48.613281 196.210938 48.640625 C 196.285156 48.664062 196.355469 48.6875 196.425781 48.71875 C 196.503906 48.75 196.578125 48.789062 196.652344 48.828125 C 196.714844 48.863281 196.78125 48.898438 196.84375 48.941406 C 196.914062 48.988281 196.980469 49.039062 197.042969 49.097656 C 197.101562 49.144531 197.160156 49.191406 197.214844 49.246094 C 197.269531 49.300781 197.324219 49.363281 197.375 49.425781 C 197.429688 49.492188 197.480469 49.558594 197.527344 49.628906 C 197.546875 49.65625 197.570312 49.679688 197.585938 49.707031 C 202.691406 58.101562 208.882812 70.3125 209.394531 80.808594 C 209.40625 81.046875 209.382812 81.285156 209.328125 81.515625 C 209.140625 82.277344 208.605469 82.90625 207.886719 83.210938 L 162.050781 102.664062 C 160.921875 103.140625 159.925781 103.816406 159.09375 104.675781 C 157.058594 106.765625 156.136719 109.699219 156.625 112.53125 C 156.734375 113.265625 156.933594 113.953125 157.214844 114.621094 C 157.90625 116.257812 159.011719 117.605469 160.503906 118.628906 C 160.578125 118.664062 160.648438 118.707031 160.71875 118.75 C 163.246094 120.367188 166.402344 120.628906 169.164062 119.457031 L 177.3125 116.007812 C 177.316406 116.003906 177.324219 116.003906 177.328125 116 L 206.644531 103.550781 C 207.292969 103.253906 208.035156 103.246094 208.6875 103.53125 C 208.800781 103.582031 220.6875 108.628906 235.664062 103.457031 C 250.921875 98.191406 256.945312 89.910156 257.003906 89.828125 C 257.46875 89.175781 258.222656 88.785156 259.023438 88.785156 L 263.277344 88.785156 C 264.96875 88.785156 266.339844 87.414062 266.339844 85.71875 L 266.339844 43.621094 C 266.339844 41.929688 264.96875 40.558594 263.277344 40.558594 L 252.65625 40.558594 C 251.660156 40.558594 250.761719 39.960938 250.375 39.046875 C 250.339844 38.972656 245.605469 28.9375 223.902344 23.019531 C 211.257812 19.578125 182.179688 18.375 169.761719 17.859375 C 167.546875 17.769531 165.800781 17.695312 164.679688 17.636719 C 161.417969 17.453125 158.144531 18.207031 155.207031 19.816406 C 152.152344 21.46875 149.617188 23.957031 147.863281 27.011719 L 129.511719 59.03125 C 127.464844 62.605469 126.890625 66.75 127.898438 70.703125 " fill-opacity="1" fill-rule="nonzero"/></g><path fill="#5e17eb" d="M 171.097656 124.019531 C 169.335938 124.765625 167.46875 125.136719 165.609375 125.136719 C 163.058594 125.136719 160.519531 124.4375 158.28125 123.070312 C 158.183594 123.023438 158.085938 122.96875 157.996094 122.910156 C 155.59375 121.34375 153.746094 119.144531 152.648438 116.550781 C 152.207031 115.5 151.898438 114.414062 151.734375 113.320312 C 151.28125 110.71875 151.617188 108.042969 152.632812 105.625 C 153.308594 104.019531 152.109375 102.246094 150.367188 102.246094 L 145.867188 102.246094 C 145.867188 102.246094 145.863281 102.246094 145.863281 102.246094 C 145.859375 102.246094 145.859375 102.246094 145.859375 102.246094 L 132.65625 102.246094 C 132.652344 102.246094 132.648438 102.246094 132.644531 102.246094 C 132.644531 102.246094 132.640625 102.246094 132.640625 102.246094 L 124.878906 102.246094 C 123.523438 102.246094 122.425781 103.34375 122.425781 104.699219 L 122.425781 170.175781 C 122.425781 171.53125 123.523438 172.628906 124.878906 172.628906 L 173.355469 172.628906 C 174.707031 172.628906 175.804688 171.53125 175.804688 170.175781 L 175.804688 125.726562 C 175.804688 123.96875 174.011719 122.78125 172.394531 123.464844 L 171.097656 124.019531 " fill-opacity="1" fill-rule="nonzero"/><path fill="#5e17eb" d="M 129.472656 97.292969 C 128.304688 92.652344 127.03125 87.582031 125.839844 82.847656 L 123.09375 71.917969 C 121.769531 66.71875 122.523438 61.261719 125.214844 56.566406 L 143.023438 25.492188 C 141.378906 25.65625 139.828125 25.882812 138.933594 26.082031 C 133.535156 27.253906 128.796875 31.164062 126.253906 36.539062 L 112.046875 66.757812 C 110.886719 70.648438 111.242188 74.765625 113.058594 78.367188 C 113.074219 78.402344 113.089844 78.433594 113.105469 78.46875 L 121.550781 97.292969 L 129.472656 97.292969 " fill-opacity="1" fill-rule="nonzero"/><g clip-path="url(#3c883acc4b)"><path fill="#5e17eb" d="M 276.121094 274.53125 C 277.316406 275.21875 278.816406 275.03125 279.796875 274.070312 C 289.480469 264.65625 299.078125 251.394531 304.117188 233.324219 C 305.988281 226.628906 306.300781 219.316406 305.542969 211.714844 C 305.445312 210.742188 304.875 209.878906 304.027344 209.390625 L 288.132812 200.207031 C 286.664062 199.359375 284.789062 199.863281 283.945312 201.328125 L 251.820312 256.964844 C 250.972656 258.429688 251.472656 260.304688 252.941406 261.152344 L 276.121094 274.53125 " fill-opacity="1" fill-rule="nonzero"/></g><path fill="#5e17eb" d="M 99.617188 274.910156 L 118.371094 264.085938 C 119.835938 263.238281 120.339844 261.363281 119.492188 259.898438 L 87.367188 204.261719 C 86.519531 202.796875 84.644531 202.292969 83.179688 203.140625 L 71.261719 210.023438 C 70.40625 210.515625 69.832031 211.390625 69.742188 212.371094 C 69.066406 219.734375 69.410156 226.820312 71.226562 233.324219 C 76.339844 251.648438 86.136719 265.03125 95.960938 274.472656 C 96.941406 275.417969 98.433594 275.59375 99.617188 274.910156 " fill-opacity="1" fill-rule="nonzero"/><g clip-path="url(#216266efe6)"><path fill="#5e17eb" d="M 232.722656 232.417969 C 232.722656 230.722656 231.351562 229.351562 229.65625 229.351562 L 213.289062 229.351562 C 213.289062 229.351562 213.285156 229.351562 213.285156 229.351562 C 213.28125 229.351562 213.28125 229.351562 213.277344 229.351562 L 182.390625 229.351562 C 180.695312 229.351562 179.324219 230.722656 179.324219 232.417969 L 179.324219 290.386719 C 179.324219 292.078125 180.695312 293.449219 182.390625 293.449219 L 229.65625 293.449219 C 231.351562 293.449219 232.722656 292.078125 232.722656 290.386719 L 232.722656 232.417969 " fill-opacity="1" fill-rule="nonzero"/></g><g clip-path="url(#09d74e2074)"><path fill="#5e17eb" d="M 234.613281 224.394531 C 236.304688 224.394531 237.679688 225.769531 237.679688 227.460938 L 237.679688 290.386719 C 237.679688 292.078125 239.050781 293.449219 240.746094 293.449219 L 246.769531 293.449219 C 249.875 293.449219 252.96875 292.714844 255.714844 291.320312 C 259.375 289.476562 264.726562 286.433594 270.617188 281.964844 C 272.355469 280.644531 272.171875 277.96875 270.277344 276.878906 L 245.664062 262.671875 C 245.09375 262.34375 244.679688 261.804688 244.507812 261.167969 C 244.339844 260.53125 244.429688 259.855469 244.753906 259.285156 L 269.742188 216.019531 C 270.289062 215.070312 270.289062 213.902344 269.742188 212.953125 L 257.179688 191.195312 C 256.332031 189.726562 254.457031 189.222656 252.988281 190.070312 L 212.074219 213.695312 C 210.605469 214.542969 210.105469 216.417969 210.953125 217.886719 L 213.828125 222.863281 C 214.375 223.8125 215.386719 224.394531 216.480469 224.394531 L 234.613281 224.394531 " fill-opacity="1" fill-rule="nonzero"/></g><g clip-path="url(#78c09c1908)"><path fill="#5e17eb" d="M 148.261719 293.449219 L 171.304688 293.449219 C 172.996094 293.449219 174.371094 292.078125 174.371094 290.386719 L 174.371094 265.335938 C 174.371094 263.644531 172.996094 262.269531 171.304688 262.269531 L 162.726562 262.269531 C 161.628906 262.269531 160.617188 262.855469 160.070312 263.800781 L 145.605469 288.851562 C 144.425781 290.894531 145.902344 293.449219 148.261719 293.449219 " fill-opacity="1" fill-rule="nonzero"/></g><g clip-path="url(#0cda642f5e)"><path fill="#5e17eb" d="M 126.804688 264.101562 C 126.632812 264.734375 126.21875 265.277344 125.648438 265.605469 L 105.519531 277.226562 C 103.605469 278.328125 103.460938 281.019531 105.226562 282.34375 C 110.910156 286.605469 116.054688 289.527344 119.605469 291.316406 C 122.375 292.714844 125.472656 293.449219 128.578125 293.449219 L 135.460938 293.449219 C 136.554688 293.449219 137.566406 292.867188 138.117188 291.917969 L 159.863281 254.253906 C 160.710938 252.789062 160.207031 250.914062 158.742188 250.066406 L 117.820312 226.441406 C 116.355469 225.59375 114.480469 226.097656 113.632812 227.5625 L 110.972656 232.167969 C 110.425781 233.117188 110.425781 234.285156 110.972656 235.234375 L 126.554688 262.21875 C 126.882812 262.789062 126.972656 263.464844 126.804688 264.101562 " fill-opacity="1" fill-rule="nonzero"/></g><g fill="#5e17eb" fill-opacity="1"><g transform="translate(59.783204, 344.295592)"><g><path d="M 0.320312 -5.71875 C 2.199219 -2.078125 6.121094 0.441406 11.757812 0.441406 C 18.597656 0.441406 22.117188 -2.917969 22.117188 -8.078125 C 22.117188 -12.078125 20.078125 -14.4375 15 -16.359375 C 14.320312 -16.640625 13.519531 -16.917969 12.597656 -17.238281 L 10.597656 -17.917969 C 10.238281 -18.078125 9.800781 -18.277344 9.359375 -18.519531 C 8.519531 -19.039062 8.28125 -19.597656 8.28125 -20.519531 C 8.28125 -21.839844 9.597656 -22.796875 11.640625 -22.796875 C 13.839844 -22.796875 15.519531 -22.078125 16.640625 -20.640625 L 20.757812 -23.757812 C 18.597656 -26.796875 15.519531 -28.316406 11.480469 -28.316406 C 8.878906 -28.316406 6.679688 -27.597656 4.878906 -26.160156 C 3.078125 -24.757812 2.199219 -22.839844 2.199219 -20.4375 C 2.199219 -16.238281 4.601562 -13.960938 8.960938 -12.359375 C 9.757812 -12.039062 11.359375 -11.519531 12.039062 -11.238281 C 12.800781 -11.039062 13.917969 -10.558594 14.4375 -10.199219 C 15.359375 -9.640625 15.960938 -8.917969 15.960938 -7.878906 C 15.960938 -6.398438 14.640625 -5.121094 11.800781 -5.121094 C 8.597656 -5.121094 6.28125 -6.359375 4.800781 -8.800781 Z M 0.320312 -5.71875 "/></g></g></g><g fill="#5e17eb" fill-opacity="1"><g transform="translate(82.980903, 344.295592)"><g><path d="M 12.320312 -20.757812 C 9.199219 -20.757812 6.558594 -19.71875 4.359375 -17.640625 C 2.199219 -15.597656 1.121094 -13.078125 1.121094 -10.078125 C 1.121094 -7.078125 2.199219 -4.558594 4.359375 -2.480469 C 6.558594 -0.441406 9.199219 0.601562 12.320312 0.601562 C 15.398438 0.601562 18.039062 -0.441406 20.238281 -2.480469 C 22.4375 -4.558594 23.519531 -7.078125 23.519531 -10.078125 C 23.519531 -13.078125 22.4375 -15.597656 20.238281 -17.640625 C 18.039062 -19.71875 15.398438 -20.757812 12.320312 -20.757812 Z M 7.078125 -10.078125 C 7.078125 -11.558594 7.597656 -12.800781 8.597656 -13.800781 C 9.597656 -14.839844 10.839844 -15.359375 12.320312 -15.359375 C 13.800781 -15.359375 15.039062 -14.839844 16.039062 -13.800781 C 17.039062 -12.800781 17.558594 -11.558594 17.558594 -10.078125 C 17.558594 -8.597656 17.039062 -7.359375 16.039062 -6.320312 C 15.039062 -5.320312 13.800781 -4.800781 12.320312 -4.800781 C 10.839844 -4.800781 9.597656 -5.320312 8.597656 -6.320312 C 7.597656 -7.320312 7.078125 -8.597656 7.078125 -10.078125 Z M 7.078125 -10.078125 "/></g></g></g><g fill="#5e17eb" fill-opacity="1"><g transform="translate(107.618451, 344.295592)"><g><path d="M 7.960938 0 L 7.960938 -9.839844 C 7.960938 -13.160156 9.960938 -15.078125 13.359375 -15.078125 C 14.078125 -15.078125 14.757812 -15 15.359375 -14.878906 L 15.359375 -20.480469 C 14.71875 -20.558594 14.199219 -20.597656 13.800781 -20.597656 C 11.039062 -20.597656 8.878906 -19.4375 7.960938 -17.398438 L 7.960938 -20.160156 L 2 -20.160156 L 2 0 Z M 7.960938 0 "/></g></g></g><g fill="#5e17eb" fill-opacity="1"><g transform="translate(123.976829, 344.295592)"><g><path d="M 3.160156 -6.679688 C 3.160156 -1.878906 5.480469 0.519531 10.121094 0.519531 C 11.277344 0.519531 12.238281 0.441406 13.039062 0.238281 L 13.039062 -5.039062 C 12.359375 -4.917969 11.839844 -4.878906 11.519531 -4.878906 C 9.71875 -4.878906 8.960938 -5.640625 8.960938 -7.558594 L 8.960938 -14.757812 L 13.4375 -14.757812 L 13.4375 -20.160156 L 8.960938 -20.160156 L 8.960938 -27.878906 L 3.160156 -27.878906 L 3.160156 -20.160156 L 0.519531 -20.160156 L 0.519531 -14.757812 L 3.160156 -14.757812 Z M 3.160156 -6.679688 "/></g></g></g><g fill="#5e17eb" fill-opacity="1"><g transform="translate(138.015433, 344.295592)"><g><path d="M 1.121094 -9.960938 C 1.121094 -6.800781 2.121094 -4.28125 4.160156 -2.359375 C 6.199219 -0.480469 8.839844 0.480469 12.160156 0.480469 C 15.558594 0.480469 18.480469 -0.761719 20.839844 -3.199219 L 17.359375 -6.519531 C 15.960938 -5.199219 14.320312 -4.558594 12.4375 -4.558594 C 9.28125 -4.558594 7.199219 -6.121094 7.078125 -8.519531 L 22.320312 -8.519531 C 22.359375 -9.121094 22.398438 -9.757812 22.398438 -10.4375 C 22.398438 -13.359375 21.4375 -15.757812 19.519531 -17.71875 C 17.597656 -19.679688 15.117188 -20.679688 12.039062 -20.679688 C 8.878906 -20.679688 6.238281 -19.71875 4.199219 -17.757812 C 2.160156 -15.839844 1.121094 -13.277344 1.121094 -10.121094 Z M 7.160156 -12.398438 C 7.320312 -14.277344 9.4375 -15.757812 12.039062 -15.757812 C 14.4375 -15.757812 16.398438 -14.277344 16.398438 -12.398438 Z M 7.160156 -12.398438 "/></g></g></g><g fill="#5e17eb" fill-opacity="1"><g transform="translate(161.373109, 344.295592)"><g><path d="M 2 -5.320312 C 2 -1.519531 3.757812 0.359375 7.28125 0.359375 C 8.597656 0.359375 9.519531 0.238281 10.039062 0.0390625 L 10.039062 -5.039062 C 9.917969 -5 9.679688 -4.960938 9.320312 -4.960938 C 8.320312 -4.960938 7.960938 -5.601562 7.960938 -7.078125 L 7.960938 -20.160156 L 2 -20.160156 Z M 1.558594 -25.238281 C 1.558594 -23.359375 3.078125 -21.878906 4.960938 -21.878906 C 6.839844 -21.878906 8.359375 -23.359375 8.359375 -25.238281 C 8.359375 -27.160156 6.839844 -28.636719 4.960938 -28.636719 C 3.078125 -28.636719 1.558594 -27.160156 1.558594 -25.238281 Z M 1.558594 -25.238281 "/></g></g></g><g fill="#5e17eb" fill-opacity="1"><g transform="translate(172.132042, 344.295592)"><g><path d="M 12.320312 -20.757812 C 9.199219 -20.757812 6.558594 -19.71875 4.359375 -17.640625 C 2.199219 -15.597656 1.121094 -13.078125 1.121094 -10.078125 C 1.121094 -7.078125 2.199219 -4.558594 4.359375 -2.480469 C 6.558594 -0.441406 9.199219 0.601562 12.320312 0.601562 C 15.398438 0.601562 18.039062 -0.441406 20.238281 -2.480469 C 22.4375 -4.558594 23.519531 -7.078125 23.519531 -10.078125 C 23.519531 -13.078125 22.4375 -15.597656 20.238281 -17.640625 C 18.039062 -19.71875 15.398438 -20.757812 12.320312 -20.757812 Z M 7.078125 -10.078125 C 7.078125 -11.558594 7.597656 -12.800781 8.597656 -13.800781 C 9.597656 -14.839844 10.839844 -15.359375 12.320312 -15.359375 C 13.800781 -15.359375 15.039062 -14.839844 16.039062 -13.800781 C 17.039062 -12.800781 17.558594 -11.558594 17.558594 -10.078125 C 17.558594 -8.597656 17.039062 -7.359375 16.039062 -6.320312 C 15.039062 -5.320312 13.800781 -4.800781 12.320312 -4.800781 C 10.839844 -4.800781 9.597656 -5.320312 8.597656 -6.320312 C 7.597656 -7.320312 7.078125 -8.597656 7.078125 -10.078125 Z M 7.078125 -10.078125 "/></g></g></g><g fill="#5e17eb" fill-opacity="1"><g transform="translate(196.769591, 344.295592)"><g/></g></g><g fill="#5e17eb" fill-opacity="1"><g transform="translate(212.927984, 344.295592)"><g><path d="M 8.679688 0 L 8.679688 -17.800781 L 22.480469 0 L 27.519531 0 L 27.519531 -27.878906 L 21.558594 -27.878906 L 21.558594 -10.558594 L 8.199219 -27.878906 L 2.71875 -27.878906 L 2.71875 0 Z M 8.679688 0 "/></g></g></g><g fill="#5e17eb" fill-opacity="1"><g transform="translate(243.164977, 344.295592)"><g><path d="M 12.320312 -20.757812 C 9.199219 -20.757812 6.558594 -19.71875 4.359375 -17.640625 C 2.199219 -15.597656 1.121094 -13.078125 1.121094 -10.078125 C 1.121094 -7.078125 2.199219 -4.558594 4.359375 -2.480469 C 6.558594 -0.441406 9.199219 0.601562 12.320312 0.601562 C 15.398438 0.601562 18.039062 -0.441406 20.238281 -2.480469 C 22.4375 -4.558594 23.519531 -7.078125 23.519531 -10.078125 C 23.519531 -13.078125 22.4375 -15.597656 20.238281 -17.640625 C 18.039062 -19.71875 15.398438 -20.757812 12.320312 -20.757812 Z M 7.078125 -10.078125 C 7.078125 -11.558594 7.597656 -12.800781 8.597656 -13.800781 C 9.597656 -14.839844 10.839844 -15.359375 12.320312 -15.359375 C 13.800781 -15.359375 15.039062 -14.839844 16.039062 -13.800781 C 17.039062 -12.800781 17.558594 -11.558594 17.558594 -10.078125 C 17.558594 -8.597656 17.039062 -7.359375 16.039062 -6.320312 C 15.039062 -5.320312 13.800781 -4.800781 12.320312 -4.800781 C 10.839844 -4.800781 9.597656 -5.320312 8.597656 -6.320312 C 7.597656 -7.320312 7.078125 -8.597656 7.078125 -10.078125 Z M 7.078125 -10.078125 "/></g></g></g><g fill="#5e17eb" fill-opacity="1"><g transform="translate(267.802537, 344.295592)"><g><path d="M 14.039062 0 L 22.679688 -20.160156 L 16.640625 -20.160156 L 11.398438 -7.359375 L 6.121094 -20.160156 L 0.078125 -20.160156 L 8.71875 0 Z M 14.039062 0 "/></g></g></g><g fill="#5e17eb" fill-opacity="1"><g transform="translate(290.560279, 344.295592)"><g><path d="M 12.320312 -20.757812 C 9.199219 -20.757812 6.558594 -19.71875 4.359375 -17.640625 C 2.199219 -15.597656 1.121094 -13.078125 1.121094 -10.078125 C 1.121094 -7.078125 2.199219 -4.558594 4.359375 -2.480469 C 6.558594 -0.441406 9.199219 0.601562 12.320312 0.601562 C 15.398438 0.601562 18.039062 -0.441406 20.238281 -2.480469 C 22.4375 -4.558594 23.519531 -7.078125 23.519531 -10.078125 C 23.519531 -13.078125 22.4375 -15.597656 20.238281 -17.640625 C 18.039062 -19.71875 15.398438 -20.757812 12.320312 -20.757812 Z M 7.078125 -10.078125 C 7.078125 -11.558594 7.597656 -12.800781 8.597656 -13.800781 C 9.597656 -14.839844 10.839844 -15.359375 12.320312 -15.359375 C 13.800781 -15.359375 15.039062 -14.839844 16.039062 -13.800781 C 17.039062 -12.800781 17.558594 -11.558594 17.558594 -10.078125 C 17.558594 -8.597656 17.039062 -7.359375 16.039062 -6.320312 C 15.039062 -5.320312 13.800781 -4.800781 12.320312 -4.800781 C 10.839844 -4.800781 9.597656 -5.320312 8.597656 -6.320312 C 7.597656 -7.320312 7.078125 -8.597656 7.078125 -10.078125 Z M 7.078125 -10.078125 "/></g></g></g></svg>